<?xml version="1.0" encoding="UTF-8"?>
<svg xmlns="http://www.w3.org/2000/svg" version="1.1" xmlns:xlink="http://www.w3.org/1999/xlink" viewBox="0 0 143.7 143.7">
  <defs>
    <style>
      .cls-1 {
        fill: #fff;
      }

      .cls-2 {
        fill: url(#Gradiente_sem_nome_51);
      }
    </style>
    <linearGradient id="Gradiente_sem_nome_51" data-name="Gradiente sem nome 51" x1="31.55" y1="21.41" x2="130.95" y2="145.82" gradientUnits="userSpaceOnUse">
      <stop offset="0" stop-color="#0f81bf"/>
      <stop offset=".44" stop-color="#2d20ad"/>
      <stop offset="1" stop-color="#1a0c97"/>
    </linearGradient>
  </defs>
  <!-- Generator: Adobe Illustrator 28.7.5, SVG Export Plug-In . SVG Version: 1.2.0 Build 176)  -->
  <g>
    <g id="Camada_1">
      <g>
        <circle class="cls-2" cx="71.85" cy="71.85" r="71.85"/>
        <g>
          <path class="cls-1" d="M104.89,65.95c9.2-3.23,18.11-7.06,26.4-12.7.12.88.29,1.55.3,2.23.02,3.66-.53,7.25-1.56,10.76-.83,2.84-2.15,5.46-3.61,8.02-.1.17-.24.32-.36.47-.01.02-.07,0-.27-.03,2.24-5.14,3.28-10.5,3.34-16.31-2.21,1.48-4.19,2.88-6.24,4.16-2.12,1.32-4.28,2.58-6.48,3.75-2.16,1.14-4.4,2.14-6.61,3.19-2.2,1.04-4.44,2.02-6.83,2.78-.87-.98-1.7-1.9-2.51-2.85-3.04-3.55-6.39-6.75-10.12-9.58-4.21-3.2-8.79-5.7-13.8-7.38-3.08-1.03-6.23-1.7-9.48-2.07-2.46-.28-4.9-.27-7.35-.23-3.91.06-7.74.73-11.54,1.61-7.28,1.69-14.15,4.46-20.8,7.82-2.27,1.15-4.51,2.34-6.9,3.58,10.48,10.08,22.94,16.27,36.6,20.28-3.48.3-13.82-1.96-21.37-5.1-9.02-3.74-16.99-9.03-23.8-16.26,1.01-.66,1.95-1.29,2.91-1.9,5.27-3.36,10.64-6.55,16.32-9.17,6.59-3.04,13.38-5.43,20.57-6.66,4.52-.77,9.05-1.09,13.6-.79,5.3.35,10.44,1.49,15.39,3.51,7.45,3.04,13.8,7.61,19.3,13.43,1.64,1.74,3.21,3.56,4.9,5.45Z"/>
          <path class="cls-1" d="M13.07,86.84c.3.12.6.23.89.37,5.48,2.73,11.21,4.69,17.25,5.69,1.77.29,3.56.42,5.35.62.84.09,1.69.2,2.54.21,4.21,0,8.37-.55,12.46-1.52,7.52-1.79,14.61-4.74,21.38-8.43,4.64-2.54,9.59-4.13,14.69-5.37,2.87-.7,5.79-1.07,8.7-1.4,1.79-.21,3.61-.1,5.41-.13,6.26-.1,12.32.97,18.21,3.06,4.16,1.47,8.03,3.53,11.67,6.01.05.04.06.14.15.35-.59-.23-1.08-.45-1.58-.62-3.87-1.33-7.8-2.39-11.85-3.04-4.26-.69-8.54-1.05-12.85-.83-3.64.18-7.25.62-10.83,1.33-5.41,1.07-10.63,2.68-15.63,4.97-1.86.85-3.64,1.87-5.45,2.82-4.93,2.56-10.07,4.59-15.44,6.01-3.23.85-6.49,1.58-9.84,1.74-1.7.08-3.39.26-5.09.25-6.02-.04-11.77-1.37-17.29-3.74-3.69-1.58-7.16-3.55-10.36-5.98-.89-.68-1.74-1.43-2.6-2.14.05-.07.09-.14.14-.22Z"/>
          <path class="cls-1" d="M81.93,98.4c1.41-1.2,3-2.13,4.62-3.01,4.42-2.4,9.15-3.91,14.07-4.85,1.22-.23,2.48-.28,3.72-.38,1.19-.1,2.39-.26,3.58-.23,3.34.08,6.65.44,9.91,1.27,4.16,1.06,8,2.76,11.49,5.24.88.63,1.71,1.32,2.46,2.2-.27-.06-.54-.11-.8-.19-2.92-1-5.84-1.98-8.87-2.63-2.34-.5-4.69-.87-7.07-1.16-3.25-.4-6.5-.3-9.75-.23-3.24.07-6.45.56-9.65,1.1-3.79.64-7.51,1.52-11.21,2.5-.8.21-1.6.45-2.4.68-.04-.1-.08-.2-.12-.3Z"/>
          <path class="cls-1" d="M55.75,77.53c5.64-6.57,6.41-13.71,3.34-21.45,6.57,6.02,4.01,18.2-3.34,21.45Z"/>
          <path class="cls-1" d="M43.92,59.44c1.83,0,3.38,1.51,3.35,3.32-.03,1.7-1.53,3.35-3.37,3.33-1.84-.02-3.3-1.5-3.29-3.35,0-1.91,1.39-3.29,3.31-3.29Z"/>
        </g>
      </g>
    </g>
  </g>
</svg>