<?xml version="1.0" encoding="UTF-8"?>
<svg xmlns="http://www.w3.org/2000/svg" version="1.1" xmlns:xlink="http://www.w3.org/1999/xlink" viewBox="0 0 554.94 163.09">
  <defs>
    <style>
      .cls-1 {
        fill: url(#Gradiente_sem_nome_51-6);
      }

      .cls-2 {
        fill: #fff;
      }

      .cls-3 {
        fill: url(#Gradiente_sem_nome_51-5);
      }

      .cls-4 {
        fill: url(#Gradiente_sem_nome_51-2);
      }

      .cls-5 {
        fill: url(#Gradiente_sem_nome_51-3);
      }

      .cls-6 {
        fill: #1a0c97;
      }

      .cls-7 {
        fill: url(#Gradiente_sem_nome_51);
      }

      .cls-8 {
        fill: url(#Gradiente_sem_nome_51-4);
      }
    </style>
    <linearGradient id="Gradiente_sem_nome_51" data-name="Gradiente sem nome 51" x1="65.79" y1="27.33" x2="174.06" y2="162.85" gradientUnits="userSpaceOnUse">
      <stop offset="0" stop-color="#0f81bf"/>
      <stop offset=".44" stop-color="#2d20ad"/>
      <stop offset="1" stop-color="#1a0c97"/>
    </linearGradient>
    <linearGradient id="Gradiente_sem_nome_51-2" data-name="Gradiente sem nome 51" x1="5.42" y1="68.18" x2="202.54" y2="68.18" xlink:href="#Gradiente_sem_nome_51"/>
    <linearGradient id="Gradiente_sem_nome_51-3" data-name="Gradiente sem nome 51" x1="7.13" y1="108.41" x2="202.84" y2="108.41" xlink:href="#Gradiente_sem_nome_51"/>
    <linearGradient id="Gradiente_sem_nome_51-4" data-name="Gradiente sem nome 51" x1="120.76" y1="118.99" x2="202.9" y2="118.99" xlink:href="#Gradiente_sem_nome_51"/>
    <linearGradient id="Gradiente_sem_nome_51-5" data-name="Gradiente sem nome 51" x1="77.64" y1="73.69" x2="89.36" y2="73.69" xlink:href="#Gradiente_sem_nome_51"/>
    <linearGradient id="Gradiente_sem_nome_51-6" data-name="Gradiente sem nome 51" x1="52.71" y1="67.03" x2="63.68" y2="67.03" xlink:href="#Gradiente_sem_nome_51"/>
  </defs>
  <!-- Generator: Adobe Illustrator 28.7.5, SVG Export Plug-In . SVG Version: 1.2.0 Build 176)  -->
  <g>
    <g id="Camada_1">
      <g>
        <g>
          <circle class="cls-7" cx="109.68" cy="82.27" r="78.26"/>
          <g>
            <path class="cls-4" d="M158.57,72.29c15.15-5.32,29.83-11.62,43.48-20.92.2,1.44.48,2.55.49,3.67.04,6.03-.87,11.94-2.57,17.72-1.37,4.67-3.54,8.99-5.94,13.2-.16.28-.39.52-.6.77-.02.02-.11-.01-.44-.05,3.68-8.47,5.4-17.29,5.5-26.87-3.64,2.44-6.89,4.75-10.28,6.86-3.49,2.17-7.05,4.26-10.68,6.18-3.56,1.88-7.24,3.53-10.88,5.25-3.63,1.71-7.31,3.33-11.25,4.57-1.43-1.62-2.8-3.14-4.13-4.69-5-5.85-10.53-11.12-16.67-15.78-6.94-5.28-14.48-9.4-22.73-12.15-5.07-1.69-10.27-2.8-15.61-3.4-4.04-.46-8.07-.44-12.11-.37-6.44.1-12.75,1.2-19.01,2.65-11.98,2.79-23.31,7.34-34.25,12.89-3.73,1.89-7.43,3.85-11.37,5.9,17.27,16.61,37.77,26.79,60.27,33.4-5.73.5-22.75-3.24-35.19-8.39-14.86-6.16-27.98-14.87-39.2-26.79,1.67-1.09,3.22-2.13,4.79-3.13,8.68-5.53,17.52-10.78,26.88-15.11,10.85-5.01,22.04-8.94,33.87-10.97,7.44-1.27,14.91-1.8,22.41-1.3,8.73.58,17.2,2.46,25.35,5.78,12.27,5,22.74,12.54,31.78,22.13,2.71,2.87,5.29,5.87,8.08,8.98Z"/>
            <path class="cls-5" d="M7.35,106.69c.49.2.99.37,1.47.61,9.02,4.49,18.46,7.72,28.41,9.37,2.91.48,5.87.7,8.81,1.01,1.39.15,2.78.34,4.18.34,6.94,0,13.78-.9,20.51-2.51,12.39-2.95,24.07-7.8,35.21-13.89,7.65-4.18,15.79-6.8,24.19-8.84,4.73-1.15,9.53-1.76,14.34-2.31,2.94-.34,5.94-.16,8.91-.21,10.3-.16,20.29,1.6,29.99,5.03,6.86,2.43,13.22,5.81,19.23,9.9.09.06.1.23.25.58-.98-.39-1.78-.74-2.6-1.02-6.37-2.19-12.85-3.93-19.52-5.01-7.02-1.13-14.07-1.72-21.17-1.36-5.99.3-11.93,1.03-17.84,2.19-8.9,1.76-17.5,4.41-25.75,8.18-3.06,1.4-5.99,3.08-8.98,4.64-8.12,4.22-16.58,7.57-25.43,9.89-5.32,1.4-10.68,2.6-16.21,2.87-2.8.14-5.59.43-8.38.41-9.91-.06-19.38-2.26-28.47-6.15-6.08-2.6-11.8-5.84-17.06-9.85-1.47-1.12-2.86-2.35-4.29-3.53.07-.12.15-.24.22-.35Z"/>
            <path class="cls-8" d="M120.76,125.73c2.33-1.97,4.95-3.51,7.61-4.96,7.27-3.96,15.07-6.45,23.18-7.99,2.01-.38,4.08-.46,6.13-.63,1.97-.17,3.94-.43,5.9-.38,5.51.14,10.95.73,16.33,2.09,6.86,1.74,13.17,4.54,18.93,8.62,1.45,1.03,2.82,2.18,4.05,3.62-.44-.11-.9-.17-1.32-.32-4.81-1.65-9.62-3.27-14.61-4.33-3.85-.82-7.72-1.43-11.64-1.91-5.35-.66-10.71-.5-16.06-.38-5.34.11-10.62.93-15.9,1.82-6.23,1.05-12.36,2.51-18.46,4.12-1.32.35-2.64.75-3.95,1.12-.06-.16-.13-.32-.19-.49Z"/>
            <path class="cls-3" d="M77.64,91.35c9.29-10.82,10.56-22.59,5.5-35.32,10.82,9.92,6.6,29.97-5.5,35.32Z"/>
            <path class="cls-1" d="M58.16,61.56c3.01,0,5.57,2.49,5.53,5.46-.04,2.79-2.52,5.52-5.55,5.48-3.02-.04-5.43-2.48-5.42-5.52,0-3.15,2.28-5.41,5.45-5.42Z"/>
          </g>
          <g>
            <path class="cls-2" d="M158.57,68.39c15.15-5.32,29.83-11.62,43.48-20.92.2,1.44.48,2.55.49,3.67.04,6.03-.87,11.94-2.57,17.72-1.37,4.67-3.54,8.99-5.94,13.2-.16.28-.39.52-.6.77-.02.02-.11-.01-.44-.05,3.68-8.47,5.4-17.29,5.5-26.87-3.64,2.44-6.89,4.75-10.28,6.86-3.49,2.17-7.05,4.26-10.68,6.18-3.56,1.88-7.24,3.53-10.88,5.25-3.63,1.71-7.31,3.33-11.25,4.57-1.43-1.62-2.8-3.14-4.13-4.69-5-5.85-10.53-11.12-16.67-15.78-6.94-5.28-14.48-9.4-22.73-12.15-5.07-1.69-10.27-2.8-15.61-3.4-4.04-.46-8.07-.44-12.11-.37-6.44.1-12.75,1.2-19.01,2.65-11.98,2.79-23.31,7.34-34.25,12.89-3.73,1.89-7.43,3.85-11.37,5.9,17.27,16.61,37.77,26.79,60.27,33.4-5.73.5-22.75-3.24-35.19-8.39-14.86-6.16-27.98-14.87-39.2-26.79,1.67-1.09,3.22-2.13,4.79-3.13,8.68-5.53,17.52-10.78,26.88-15.11,10.85-5.01,22.04-8.94,33.87-10.97,7.44-1.27,14.91-1.8,22.41-1.3,8.73.58,17.2,2.46,25.35,5.78,12.27,5,22.74,12.54,31.78,22.13,2.71,2.87,5.29,5.87,8.08,8.98Z"/>
            <path class="cls-2" d="M7.35,102.79c.49.2.99.37,1.47.61,9.02,4.49,18.46,7.72,28.41,9.37,2.91.48,5.87.7,8.81,1.01,1.39.15,2.78.34,4.18.34,6.94,0,13.78-.9,20.51-2.51,12.39-2.95,24.07-7.8,35.21-13.89,7.65-4.18,15.79-6.8,24.19-8.84,4.73-1.15,9.53-1.76,14.34-2.31,2.94-.34,5.94-.16,8.91-.21,10.3-.16,20.29,1.6,29.99,5.03,6.86,2.43,13.22,5.81,19.23,9.9.09.06.1.23.25.58-.98-.39-1.78-.74-2.6-1.02-6.37-2.19-12.85-3.93-19.52-5.01-7.02-1.13-14.07-1.72-21.17-1.36-5.99.3-11.93,1.03-17.84,2.19-8.9,1.76-17.5,4.41-25.75,8.18-3.06,1.4-5.99,3.08-8.98,4.64-8.12,4.22-16.58,7.57-25.43,9.89-5.32,1.4-10.68,2.6-16.21,2.87-2.8.14-5.59.43-8.38.41-9.91-.06-19.38-2.26-28.47-6.15-6.08-2.6-11.8-5.84-17.06-9.85-1.47-1.12-2.86-2.35-4.29-3.53.07-.12.15-.24.22-.35Z"/>
            <path class="cls-2" d="M120.76,121.83c2.33-1.97,4.95-3.51,7.61-4.96,7.27-3.96,15.07-6.45,23.18-7.99,2.01-.38,4.08-.46,6.13-.63,1.97-.17,3.94-.43,5.9-.38,5.51.14,10.95.73,16.33,2.09,6.86,1.74,13.17,4.54,18.93,8.62,1.45,1.03,2.82,2.18,4.05,3.62-.44-.11-.9-.17-1.32-.32-4.81-1.65-9.62-3.27-14.61-4.33-3.85-.82-7.72-1.43-11.64-1.91-5.35-.66-10.71-.5-16.06-.38-5.34.11-10.62.93-15.9,1.82-6.23,1.05-12.36,2.51-18.46,4.12-1.32.35-2.64.75-3.95,1.12-.06-.16-.13-.32-.19-.49Z"/>
            <path class="cls-2" d="M77.64,87.46c9.29-10.82,10.56-22.59,5.5-35.32,10.82,9.92,6.6,29.97-5.5,35.32Z"/>
            <path class="cls-2" d="M58.16,57.66c3.01,0,5.57,2.49,5.53,5.46-.04,2.79-2.52,5.52-5.55,5.48-3.02-.04-5.43-2.48-5.42-5.52,0-3.15,2.28-5.41,5.45-5.42Z"/>
          </g>
        </g>
        <g>
          <path class="cls-6" d="M252.2,139.62h-5.89l-1.07,4.41h-2.49l5.22-20.3h2.58l5.22,20.3h-2.49l-1.07-4.41ZM251.68,137.42l-1.65-6.87c-.32-1.31-.61-3.02-.73-3.8h-.09c-.12.78-.41,2.49-.73,3.8l-1.65,6.87h4.84Z"/>
          <path class="cls-6" d="M260.09,138.09v-8.44c0-4.06,2.2-6.24,5.71-6.24s5.63,2.12,5.77,6h-2.35c-.12-2.58-1.36-3.74-3.42-3.74s-3.34,1.25-3.34,4v8.41c0,2.73,1.39,4,3.45,4s3.51-1.28,3.51-3.8v-3.08h-3.57v-2.12h5.86v5.19c-.03,3.83-2.32,6.06-5.8,6.06s-5.83-2.23-5.83-6.27Z"/>
          <path class="cls-6" d="M282.24,136.38h-2.06v7.66h-2.38v-20.3h4.96c3.83,0,5.95,2.26,5.95,6.15,0,3.34-1.48,5.54-4.03,6.27l4.7,7.89h-2.7l-4.44-7.66ZM280.18,134.14h2.55c2.35,0,3.57-1.48,3.57-4.18s-1.22-4-3.54-4h-2.58v8.18Z"/>
          <path class="cls-6" d="M294.48,137.65v-7.57c0-4.15,2.26-6.73,6.03-6.73s6,2.58,6,6.73v7.57c0,4.18-2.23,6.76-6,6.76s-6.03-2.58-6.03-6.76ZM304.08,137.65v-7.57c0-2.81-1.22-4.41-3.57-4.41s-3.6,1.6-3.6,4.41v7.57c0,2.84,1.22,4.44,3.6,4.44s3.57-1.6,3.57-4.44Z"/>
          <path class="cls-6" d="M315.48,123.73v20.3h-2.38v-20.3h2.38Z"/>
          <path class="cls-6" d="M334.27,123.73v20.3h-2.41l-4.99-10.91c-.64-1.45-1.57-3.77-2-4.93l-.09.03c.12,1.8.23,4.5.23,6.24v9.57h-2.38v-20.3h2.41l5.08,11.08c.67,1.39,1.57,3.54,2.03,4.73l.09-.03c-.14-1.77-.32-4.61-.32-6.38v-9.4h2.35Z"/>
          <path class="cls-6" d="M341.43,123.73h4.82c3.89,0,6.15,2.26,6.15,6.15v8.01c0,3.89-2.29,6.15-6.12,6.15h-4.84v-20.3ZM346.28,141.77c2.38,0,3.74-1.33,3.74-3.97v-7.86c0-2.61-1.33-3.95-3.74-3.95h-2.47v15.78h2.47Z"/>
          <path class="cls-6" d="M358.66,137.88v-14.16h2.44v14.16c0,2.81,1.33,4.12,3.34,4.12s3.36-1.31,3.36-4.12v-14.16h2.41v14.16c0,4.18-2.32,6.44-5.77,6.44s-5.77-2.26-5.77-6.44ZM365.56,118.28h2.41l-3.1,3.45h-1.97l2.67-3.45Z"/>
          <path class="cls-6" d="M375.74,138.64h2.41c.06,2.29,1.36,3.48,3.36,3.48,2.21,0,3.28-1.36,3.28-3.28,0-4.35-8.73-4.47-8.73-10.44,0-2.87,2.15-5.05,5.42-5.05s5.37,2.23,5.48,5.57h-2.41c-.09-2.23-1.28-3.28-3.05-3.28-1.91,0-3.05,1.1-3.05,2.78,0,4.32,8.76,4.24,8.76,10.44,0,2.9-2,5.54-5.69,5.54-3.48,0-5.74-2.23-5.8-5.77Z"/>
          <path class="cls-6" d="M402.68,125.96h-4.35v18.07h-2.41v-18.07h-4.35v-2.23h11.11v2.23Z"/>
          <path class="cls-6" d="M412.54,136.38h-2.06v7.66h-2.38v-20.3h4.96c3.83,0,5.95,2.26,5.95,6.15,0,3.34-1.48,5.54-4.03,6.27l4.7,7.89h-2.7l-4.44-7.66ZM410.48,134.14h2.55c2.35,0,3.57-1.48,3.57-4.18s-1.22-4-3.54-4h-2.58v8.18Z"/>
          <path class="cls-6" d="M427.71,123.73v20.3h-2.38v-20.3h2.38Z"/>
          <path class="cls-6" d="M442.47,139.62h-5.89l-1.07,4.41h-2.5l5.22-20.3h2.58l5.22,20.3h-2.49l-1.07-4.41ZM441.95,137.42l-1.65-6.87c-.32-1.31-.61-3.02-.73-3.8h-.09c-.12.78-.41,2.49-.72,3.8l-1.65,6.87h4.84Z"/>
        </g>
      </g>
      <g>
        <path class="cls-6" d="M434.19,81.52c-2.56,1.9-4.89,3.65-7.25,5.37-1.65,1.2-3.5,1.77-5.56,1.94-4.6.39-8.2-2.47-8.73-7.11-.09-.77-.11-1.54-.21-3-1.06,1.8-1.69,3.11-2.53,4.27-1.7,2.36-3.42,4.73-5.33,6.93-.84.97-2.06,1.69-3.24,2.25-2.06.98-3.38.43-4.7-1.47-2-2.88-1.73-6.02-1.22-9.21.06-.38.2-.74.39-1.39-1.5.84-2.74,1.7-4.1,2.26-4.18,1.73-7.95-.82-7.8-5.31.05-1.43.54-2.84.74-4.28.2-1.42.3-2.85.43-4.18-1-1.31-2.04-.9-2.82-.11-2.13,2.18-4.24,4.39-6.17,6.74-2.96,3.6-5.42,7.5-7.15,11.88-.7,1.76-1.15,3.49-1.2,5.37-.02.73-.29,1.45-.46,2.25-3.62-.31-5.71-2.41-7.31-5.09-1.6-2.67-.62-5.73-.99-8.59-3.08,4.28-6.03,8.56-9.18,12.7-2.99,3.94-3.89,4.41-8.71,5.8-4.52-1.33-5.99-3.76-4.81-8.3.73-2.8,1.7-5.54,2.53-8.32.18-.6.21-1.24.44-2.64-1.12,1.18-1.76,1.75-2.28,2.42-2.48,3.16-5.21,6.06-8.58,8.28-.88.58-1.81,1.18-2.8,1.5-3.48,1.12-6.94-.98-7.25-4.64-.24-2.84.09-5.72.17-8.7-1.33.36-2.82.76-4.2,1.12-1.98,2.31-3.8,4.59-5.79,6.71-2.03,2.17-4.45,3.72-7.5,4.23-5.57.93-8.63-1.52-9.08-6.61-.56-6.22,1.5-11.76,5.66-16.45,2.02-2.28,4.7-3.35,7.79-3.71,1.96-2.56,3.54-5.71,7.67-5.98,3.53,1.15,5.18,3.82,5.33,7.7.15,4.12-1.23,7.78-3.37,11.76,1.63-.31,2.93-.55,4.41-.83.69-1.27,1.43-2.52,2.07-3.81,1.86-3.78,4.61-6.83,7.78-9.52,1.1-.93,2.4-1.71,3.73-2.27,3.61-1.55,6.99-1.33,9.88,1.66.54.56,1.15,1.06,2,1.83.56-.96,1.06-1.67,1.41-2.44,4.03-9.06,7.85-18.23,13.14-26.67,2.84-4.53,6.15-8.7,10.81-11.52,1.92-1.17,4.03-2.27,6.15-.35,1.54,4.63-.56,8.44-2.8,12-3.66,5.84-7.6,11.52-11.56,17.17-6.31,9.03-12.27,18.26-16.16,28.62-1.38,3.68-2.82,7.42-2.77,11.48,0,.51.11,1.02.19,1.69,1.89-.12,3.05-1.17,4.06-2.35,3.11-3.64,6.15-7.33,9.24-10.99,2.33-2.76,3.9-5.93,5.37-9.21,2.42-5.36,5.5-10.28,10.49-13.74,1.38-.96,2.74-1.63,4.46-1.13,2.16,2.51,2.16,4.03.01,6.5-1.74,2.01-3.61,3.92-5.18,6.06-2.44,3.34-4.07,7.12-5.17,11.1-.26.95-.14,2.01-.24,3.82,4.16-7.32,8.35-13.59,13.87-18.86,1.23-1.17,2.63-2.3,4.16-2.99,2.8-1.25,3.83-1.05,7.73.46,1.09,1.22,1.31,2.57.77,4.3-1.02,3.26-1.76,6.6-2.59,9.79q2.54,1.96,5.82-.77c1.63-4.37,3.13-8.47,4.7-12.54.38-.98.94-1.9,1.5-2.81,1.95-3.17,4.1-3.4,7.32-.49-.18,1.04-.22,2.37-.66,3.55-1.9,5.07-3.89,10.11-5.9,15.14-.82,2.05-.93,4.1-.46,6.65.96-.37,1.96-.46,2.46-1,2.44-2.62,4.77-5.36,7.09-8.09.32-.37.42-.95.55-1.45,2.66-10.17,9.71-16.22,19.18-19.52,4.75-1.66,9.71-1.08,14.07,1.99,1.65,1.16,2.29,2.93,2.72,4.73.34,1.44.21,2.95-1.73,4.17-.89-.2-2.21-.31-3.4-.77-8.72-3.41-16.79.25-21.71,6.37-1.66,2.06-3.13,4.31-3.77,6.93-.36,1.5-.42,3.07-.61,4.6,1.09.66,1.87,1.12,2.52,1.51,4.03-.67,6.94-3.07,9.81-5.37,3.21-2.57,6.27-5.34,8.67-8.76.65-.93,1.74-1.57,2.93-2.61,1.06.87,2.37,1.49,2.9,2.51.47.91.38,2.35.04,3.4-2.69,8.29-5.25,16.63-9.37,24.37-2.76,5.18-6.02,9.99-10.85,13.51-2.93,2.13-6.06,3.77-9.86,3.72-7.14-.1-11.54-6.96-8.54-13.42,2.07-4.46,5-6.65,11.07-8.07,1.38.47,3.08,1.05,4.78,1.64,0,.21,0,.41,0,.62-1.15.25-2.31.43-3.44.75-3.34.95-5.92,2.69-7.21,6.2-.78,2.11-.56,3.58,1.48,4.95,3.77.58,6.8-1.36,9.38-3.91,1.87-1.85,3.51-4.03,4.87-6.29,3.14-5.22,5.46-10.86,7.67-16.53.08-.21-.04-.49-.1-1.1ZM325.05,88.31c1.6-.8,3.06-1.18,4.05-2.09,2.62-2.39,5.18-4.89,7.49-7.58,2.14-2.5,4.04-5.23,5.84-7.99,1.39-2.13,1.03-3.17-1.16-4.53-.54-.34-1.21-.46-1.68-.63-9.15,2.86-15.86,13.01-14.54,22.82ZM301.16,86.99c4.76.08,7.14-1.72,9.1-6.85-3.89-1.01-5.41-4.47-7.31-7.63-4.74,6.12-5.29,10.6-1.79,14.48ZM312.5,63.35c-3.77,1.2-5.36,3.44-5.37,7.53,0,3.4,1.46,5.3,5.15,6.57,1.53-3.06,2.86-6.18,2.79-9.71-.04-1.93-.36-3.71-2.57-4.38ZM374.21,27.03c-3.94,3.34-16.94,25.89-18.02,31.26,5.86-7.99,11.43-15.85,15.79-24.49,1.04-2.07,2.33-4.09,2.23-6.77Z"/>
        <path class="cls-6" d="M540.57,76.59c-.58-1.45-1.57-1.83-2.7-1.68-2.62.33-5.25.68-7.84,1.2-1.68.34-3.28,1.01-4.93,1.51q-4.48,1.37-8.55-.17c-2.25,2.18-4.44,4.32-6.66,6.43-3.03,2.87-6.51,5.09-10.43,6.43-1.68.58-3.68.8-5.42.51-1.82-.31-3.33-1.57-3.74-3.68-.3-1.55-.7-3.07-1.1-4.82-1.44,1.72-2.82,3.4-4.22,5.05-1.83,2.16-4.02,3.85-6.68,4.84-3.95,1.46-7.17-.33-8.09-4.46-.4-1.81-.82-3.57-.17-5.48.4-1.17.2-2.54.28-4.16-3.05,3.23-5.71,6.19-8.53,8.99-1.41,1.39-3.01,2.65-4.72,3.65-2.56,1.5-5.41,1.86-7.88-.04-2.36-1.81-3.4-4.53-2.79-7.47,1.68-8.11,4.47-15.78,9.71-22.44,2.12-.74,3.89-.42,5.32,1.72.99,4.27-1.51,7.78-3.27,11.39-1.68,3.44-3.51,6.8-4.18,10.62-.12.66.18,1.39.3,2.2,2.49-.47,4.16-1.75,5.56-3.35,4.11-4.7,8.18-9.43,12.18-14.21,2.72-3.26,5.29-6.65,7.98-9.93.82-1,1.85-1.84,3-2.98,1.5.82,2.83,1.55,3.84,2.11.66,2.24-.26,3.56-1.18,4.88-3.33,4.8-5.93,9.98-7.64,15.57-.57,1.88-.93,3.84-1.23,5.79-.23,1.5.16,2.88,1.8,4.17,1.09-.62,2.51-1.11,3.5-2.06,2.3-2.2,4.41-4.61,6.58-6.95,1.86-2.01,2.25-4.72,3.3-7.11,1.88-4.31,4.34-8.19,7.79-11.43,3.7-3.48,10.6-4.66,15.29.86v3.33c-2.34,4.68-6.4,7.11-10.87,9.05-.73.32-1.46.64-2.23.84-5.39,1.4-6.96,5.69-5.62,11.65,1.12,1.12,2.34.81,3.68.37,4.66-1.5,8.45-4.39,12.13-7.46,1.22-1.02,2.28-2.24,3.54-3.48-1.78-3.93-.34-7.5,1.99-10.59,5.68-7.53,13.49-11.89,22.59-13.83,4.87-1.04,8.73,1.42,10.71,6.19-.8,3.81-4.02,5.46-6.98,7.1-3.12,1.72-5.82,4.8-9.88,4.16-1.27-1.8-.47-2.97.73-3.97,1.74-1.44,3.55-2.79,5.3-4.22.57-.47,1.02-1.07,1.73-1.83-8.15.98-17.23,6.82-21.04,13.45,1.48.96,3.01.52,4.51.21,2.86-.58,5.69-1.29,8.56-1.77,1.69-.28,3.43-.24,4.86-.32,4.6,2.63,5.65,4.79,4.44,9.56-.54,2.15-1.32,4.32-2.42,6.23-3.31,5.77-7.96,10.31-13.83,13.43-4.7,2.49-9.67,3.65-14.85,1.33-1.06-.47-2.14-1.06-2.99-1.84-2.2-2.01-2.5-4.28-.99-6.8,2.23-3.71,5.57-5.99,9.66-7.19,1.36-.4,2.78-.61,5.02-1.09-.95.91-1.26,1.42-1.7,1.6-2.56,1.06-4.31,3.02-5.92,5.15-.99,1.3-1.21,2.61-.14,3.94,8.64,1.64,21.85-8.03,25.53-18.71ZM510.3,62.59c-3.99,2.57-6.83,6.03-9.58,9.64,3.93-1.17,7.46-2.95,10.06-6.17.68-.85.77-1.94-.48-3.47Z"/>
        <path class="cls-6" d="M278.94,90.25c-5.77,11.16-18.5,13.47-28.32.89-1.98,3.98-.58,8.37-1.38,12.7-3.22-.78-4.84-2.93-5.32-5.79-.6-3.51-.74-7-.33-10.66.69-6.25,2.07-12.25,4.19-18.11,3.28-9.05,7.84-17.38,14.23-24.63,1.2-1.36,2.68-2.48,4.53-4.15-4.42,1.18-7.94,2.85-11.24,5.04-1.32.88-2.61,1.83-4,2.59-.6.33-1.43.25-2.35.39-.24-2.09.9-3.17,1.95-4.31,4.18-4.57,9.54-7.1,15.35-8.79,6.12-1.79,12.38-1.99,18.51-.36,6.48,1.72,11.11,5.62,12.3,12.62.24,1.39.24,2.91-.06,4.29-2.64,12.08-9.92,20.58-20.64,26.31-3.15,1.68-6.41,3.22-9.74,4.49-3.2,1.21-6.57,1.99-10.04,3.01.87,2.29,2.6,3.61,4.59,4.68,4.63,2.49,9.42,2.32,14.28.85,1.1-.33,2.2-.67,3.47-1.06ZM252.46,80.37c.94.18,1.19.28,1.44.27,9.1-.28,16.95-3.76,23.82-9.55,5.19-4.38,8.6-9.92,10.42-16.5,1.67-6.03-.83-10.95-5.24-13.19-4.01-2.04-8.23-1.84-12.67-1.28,2.22,3.54,2.18,4.09-.36,6.77-.37.39-.77.74-1.13,1.13-5.16,5.75-9.62,11.94-12.06,19.39-1.39,4.24-2.77,8.48-4.23,12.96Z"/>
        <path class="cls-6" d="M413.68,49.05c-.49,3.39-1.38,6.24-4.71,7.65-1.88-.64-2.81-1.8-2.65-3.61.25-2.83,1.57-4.96,4.6-6.16.85.65,1.75,1.35,2.76,2.13Z"/>
      </g>
    </g>
  </g>
</svg>